<svg width="216" height="165" viewBox="0 0 216 165" fill="none" xmlns="http://www.w3.org/2000/svg">
<g id="calendar-not-available-illustration" clip-path="url(#clip0_4875_22851)">
<path id="Vector" d="M186.807 99.011C187.501 97.5865 188.113 96.0901 188.644 94.5218C194.727 76.5673 185.529 55.0632 166.157 49.8734C164.062 23.5692 145.578 5.52657 124.705 2.44793C100.814 -1.07615 78.9245 14.1013 71.642 38.227C62.8631 35.1182 54.3093 35.4963 46.2496 40.2059C42.5933 41.8972 39.2479 44.3935 36.2458 47.6763C31.8378 52.495 28.9749 58.5803 27.8079 64.9951C26.0795 65.2666 24.3813 65.5403 22.7805 66.1134C13.4471 69.4611 7.55667 76.3515 5.94195 86.7289C4.93507 93.1901 6.96507 99.6374 8.09723 102.243C12.5679 112.534 22.9359 118.371 33.4687 116.826C33.9931 116.75 34.754 116.986 35.2064 117.364C35.7632 133.816 43.751 148.364 55.7338 156.675C74.9596 170.01 99.6955 165.901 115.3 147.615C121.986 154.454 129.944 157.777 139.293 156.57C148.587 155.371 155.805 150.241 161.071 141.903C163.502 142.557 165.811 143.502 168.196 143.761C177.534 144.782 185.118 141.068 190.681 132.672C192.811 129.459 194.825 125.292 194.825 117.991C194.825 110.462 191.837 103.607 186.807 99.011Z" fill="#BFE4E8"/>
<path id="Vector_2" d="M176.715 90.9254C176.715 90.9254 203.726 90.9254 203.891 90.9254C210.129 90.9254 215.185 85.8678 215.185 79.6293C215.185 74.1866 211.336 69.6464 206.211 68.5745C206.269 68.0989 206.311 67.6164 206.311 67.1245C206.311 60.6633 201.075 55.4271 194.613 55.4271C190.799 55.4271 187.421 57.2622 185.287 60.0856C184.742 52.8936 178.318 47.3465 170.801 48.2652C165.305 48.938 160.76 53.186 159.748 58.6287C159.424 60.3733 159.458 62.0692 159.781 63.6584C158.308 62.0715 156.21 61.0716 153.874 61.0716C149.598 61.0716 146.109 64.4008 145.833 68.607C143.891 68.1778 141.78 68.2056 139.555 69.0408C135.305 70.637 132.277 74.639 132.099 79.1769C131.848 85.6219 136.996 90.9254 143.383 90.9254C143.868 90.9254 145.573 90.9254 145.968 90.9254H169.42" fill="#E0F8F9"/>
<path id="Vector_3" d="M148.167 23.0399H124.992C124.352 23.0399 123.832 22.5203 123.832 21.8799C123.832 21.2396 124.352 20.7199 124.992 20.7199H148.167C148.807 20.7199 149.327 21.2396 149.327 21.8799C149.327 22.5203 148.807 23.0399 148.167 23.0399ZM154.823 23.0399H151.482C150.842 23.0399 150.322 22.5203 150.322 21.8799C150.322 21.2396 150.842 20.7199 151.482 20.7199H154.823C155.463 20.7199 155.983 21.2396 155.983 21.8799C155.983 22.5203 155.463 23.0399 154.823 23.0399ZM164.191 23.0399H158.307C157.667 23.0399 157.147 22.5203 157.147 21.8799C157.147 21.2396 157.667 20.7199 158.307 20.7199H164.191C164.831 20.7199 165.351 21.2396 165.351 21.8799C165.351 22.5203 164.831 23.0399 164.191 23.0399ZM159.509 13.7599H137.291C136.65 13.7599 136.131 13.2403 136.131 12.5999C136.131 11.9596 136.65 11.4399 137.291 11.4399H159.509C160.149 11.4399 160.669 11.9596 160.669 12.5999C160.669 13.2403 160.152 13.7599 159.509 13.7599ZM133.291 13.7599H131.95C131.31 13.7599 130.79 13.2403 130.79 12.5999C130.79 11.9596 131.31 11.4399 131.95 11.4399H133.291C133.931 11.4399 134.451 11.9596 134.451 12.5999C134.451 13.2403 133.931 13.7599 133.291 13.7599ZM127.799 13.7599H124.435C123.795 13.7599 123.275 13.2403 123.275 12.5999C123.275 11.9596 123.795 11.4399 124.435 11.4399H127.799C128.44 11.4399 128.959 11.9596 128.959 12.5999C128.959 13.2403 128.44 13.7599 127.799 13.7599Z" fill="white"/>
<g id="Group">
<path id="Vector_4" d="M153.587 18.4001H141.971C141.33 18.4001 140.811 17.8804 140.811 17.2401C140.811 16.5998 141.33 16.0801 141.971 16.0801H153.587C154.227 16.0801 154.747 16.5998 154.747 17.2401C154.747 17.8804 154.229 18.4001 153.587 18.4001Z" fill="white"/>
</g>
<g id="Group_2">
<path id="Vector_5" d="M153.586 13.7599H150.681C150.041 13.7599 149.521 13.2403 149.521 12.5999C149.521 11.9596 150.041 11.4399 150.681 11.4399H153.586C154.226 11.4399 154.746 11.9596 154.746 12.5999C154.746 13.2403 154.229 13.7599 153.586 13.7599Z" fill="white"/>
</g>
<g id="Group_3">
<path id="Vector_6" d="M138.609 18.4001H134.547C133.906 18.4001 133.387 17.8804 133.387 17.2401C133.387 16.5998 133.906 16.0801 134.547 16.0801H138.609C139.249 16.0801 139.769 16.5998 139.769 17.2401C139.769 17.8804 139.252 18.4001 138.609 18.4001Z" fill="white"/>
</g>
<g id="Group_4">
<path id="Vector_7" d="M25.2997 83.3598H2.12289C1.48257 83.3598 0.962891 82.8401 0.962891 82.1998C0.962891 81.5594 1.48257 81.0398 2.12289 81.0398H25.2974C25.9377 81.0398 26.4574 81.5594 26.4574 82.1998C26.4574 82.8401 25.94 83.3598 25.2997 83.3598ZM31.9558 83.3598H28.6173C27.977 83.3598 27.4573 82.8401 27.4573 82.1998C27.4573 81.5594 27.977 81.0398 28.6173 81.0398H31.9558C32.5961 81.0398 33.1158 81.5594 33.1158 82.1998C33.1158 82.8401 32.5961 83.3598 31.9558 83.3598ZM41.3239 83.3598H35.4404C34.8001 83.3598 34.2804 82.8401 34.2804 82.1998C34.2804 81.5594 34.8001 81.0398 35.4404 81.0398H41.3239C41.9642 81.0398 42.4839 81.5594 42.4839 82.1998C42.4839 82.8401 41.9642 83.3598 41.3239 83.3598ZM41.3239 87.9998H19.1053C18.465 87.9998 17.9453 87.4801 17.9453 86.8398C17.9453 86.1994 18.465 85.6798 19.1053 85.6798H41.3239C41.9642 85.6798 42.4839 86.1994 42.4839 86.8398C42.4839 87.4801 41.9642 87.9998 41.3239 87.9998ZM15.1056 87.9998H13.7646C13.1243 87.9998 12.6046 87.4801 12.6046 86.8398C12.6046 86.1994 13.1243 85.6798 13.7646 85.6798H15.1056C15.7459 85.6798 16.2656 86.1994 16.2656 86.8398C16.2656 87.4801 15.7459 87.9998 15.1056 87.9998ZM9.61185 87.9998H6.24785C5.60753 87.9998 5.08785 87.4801 5.08785 86.8398C5.08785 86.1994 5.60753 85.6798 6.24785 85.6798H9.61185C10.2522 85.6798 10.7718 86.1994 10.7718 86.8398C10.7718 87.4801 10.2545 87.9998 9.61185 87.9998ZM30.7215 78.7198H19.1053C18.465 78.7198 17.9453 78.2001 17.9453 77.5598C17.9453 76.9194 18.465 76.3998 19.1053 76.3998H30.7215C31.3618 76.3998 31.8815 76.9194 31.8815 77.5598C31.8815 78.2001 31.3618 78.7198 30.7215 78.7198ZM30.7215 74.0798H27.8169C27.1766 74.0798 26.6569 73.5601 26.6569 72.9198C26.6569 72.2794 27.1766 71.7598 27.8169 71.7598H30.7215C31.3618 71.7598 31.8815 72.2794 31.8815 72.9198C31.8815 73.5601 31.3618 74.0798 30.7215 74.0798ZM23.1699 92.6398H19.1076C18.4673 92.6398 17.9476 92.1201 17.9476 91.4798C17.9476 90.8394 18.4673 90.3198 19.1076 90.3198H23.1699C23.8103 90.3198 24.3299 90.8394 24.3299 91.4798C24.3299 92.1201 23.8103 92.6398 23.1699 92.6398Z" fill="white"/>
</g>
<g id="Group_5">
<path id="Vector_8" d="M149.771 135.227H64.5V58.0472C64.5 52.9372 68.6806 48.7567 73.7905 48.7567H140.48C145.59 48.7567 149.771 52.9372 149.771 58.0472V135.227Z" fill="white"/>
<path id="Vector_9" d="M140.333 48.8046L74.1958 48.7654C69.2105 48.7654 64.665 52.4498 64.665 57.428V67.0234L135.729 66.823L149.852 66.8232V57.814C149.855 52.8358 145.322 48.8046 140.333 48.8046Z" fill="#0093A4"/>
<path id="Vector_10" d="M75.9085 57.1578C75.271 57.1578 74.6597 57.411 74.2089 57.8618C73.7581 58.3126 73.5049 58.9239 73.5049 59.5614C73.5049 60.1989 73.7581 60.8103 74.2089 61.2611C74.6597 61.7118 75.271 61.9651 75.9085 61.9651C76.546 61.9651 77.1574 61.7118 77.6082 61.2611C78.0589 60.8103 78.3122 60.1989 78.3122 59.5614C78.3122 58.9239 78.0589 58.3126 77.6082 57.8618C77.1574 57.411 76.546 57.1578 75.9085 57.1578Z" fill="white"/>
<path id="Vector_11" d="M138.361 57.1578C137.723 57.1578 137.112 57.411 136.661 57.8618C136.21 58.3126 135.957 58.9239 135.957 59.5614C135.957 60.1989 136.21 60.8103 136.661 61.2611C137.112 61.7118 137.723 61.9651 138.361 61.9651C138.998 61.9651 139.61 61.7118 140.06 61.2611C140.511 60.8103 140.764 60.1989 140.764 59.5614C140.764 58.9239 140.511 58.3126 140.06 57.8618C139.61 57.411 138.998 57.1578 138.361 57.1578Z" fill="white"/>
<g id="Group_6">
<path id="Vector_12" d="M136.558 53.5184C135.917 53.5184 135.401 52.9985 135.401 52.3611V45.1573C135.401 44.5163 135.921 44 136.558 44C137.196 44 137.716 44.5199 137.716 45.1573V52.3611C137.719 52.9985 137.199 53.5184 136.558 53.5184ZM128.155 53.5184C127.514 53.5184 126.997 52.9985 126.997 52.3611V45.1573C126.997 44.5163 127.517 44 128.155 44C128.792 44 129.312 44.5199 129.312 45.1573V52.3611C129.312 52.9985 128.792 53.5184 128.155 53.5184ZM119.744 53.5184C119.103 53.5184 118.586 52.9985 118.586 52.3611V45.1573C118.586 44.5163 119.106 44 119.744 44C120.381 44 120.901 44.5199 120.901 45.1573V52.3611C120.901 52.9985 120.385 53.5184 119.744 53.5184ZM111.336 53.5184C110.695 53.5184 110.179 52.9985 110.179 52.3611V45.1573C110.179 44.5163 110.699 44 111.336 44C111.974 44 112.493 44.5199 112.493 45.1573V52.3611C112.497 52.9985 111.977 53.5184 111.336 53.5184ZM102.929 53.5184C102.288 53.5184 101.771 52.9985 101.771 52.3611V45.1573C101.771 44.5163 102.291 44 102.929 44C103.566 44 104.086 44.5199 104.086 45.1573V52.3611C104.09 52.9985 103.57 53.5184 102.929 53.5184ZM94.5249 53.5184C93.8839 53.5184 93.3676 52.9985 93.3676 52.3611V45.1573C93.3676 44.5163 93.8875 44 94.5249 44C95.1623 44 95.6822 44.5199 95.6822 45.1573V52.3611C95.6822 52.9985 95.1623 53.5184 94.5249 53.5184ZM86.1175 53.5184C85.4765 53.5184 84.9601 52.9985 84.9601 52.3611V45.1573C84.9601 44.5163 85.4801 44 86.1175 44C86.7549 44 87.2748 44.5199 87.2748 45.1573V52.3611C87.2748 52.9985 86.7584 53.5184 86.1175 53.5184ZM77.71 53.5184C77.0691 53.5184 76.5527 52.9985 76.5527 52.3611V45.1573C76.5527 44.5163 77.0726 44 77.71 44C78.3475 44 78.8674 44.5199 78.8674 45.1573V52.3611C78.8674 52.9985 78.351 53.5184 77.71 53.5184Z" fill="#4C5661"/>
</g>
</g>
<g id="Group_7">
<path id="Vector_13" d="M73.8061 146C78.0643 146 81.7551 146 81.8095 146C86.5785 146 90.4463 142.216 90.4463 137.547C90.4463 133.475 87.5023 130.075 83.5846 129.274C83.6299 128.917 83.6595 128.556 83.6595 128.189C83.6595 123.354 79.6555 119.434 74.714 119.434C71.7973 119.434 69.2142 120.807 67.5822 122.92C67.1645 117.538 62.2526 113.387 56.5053 114.075C52.3038 114.579 48.8264 117.756 48.0547 121.831C47.8073 123.138 47.8322 124.405 48.0797 125.596C46.9538 124.409 45.349 123.66 43.5627 123.66C40.2941 123.66 37.6248 126.15 37.4137 129.299C35.9292 128.976 34.3153 128.999 32.6129 129.623C29.3625 130.817 27.0473 133.813 26.9111 137.209C26.7182 142.032 30.6563 146 35.541 146C35.911 146 37.2162 146 37.5158 146H55.4498M59.1633 146H59.9759H59.1633Z" fill="#E0F8F9"/>
</g>
<path id="Vector_14" d="M112.158 98.6862L116.843 94.0015C118.216 92.6286 118.216 90.4027 116.843 89.0297C115.47 87.6568 113.244 87.6568 111.871 89.0297L107.186 93.7144L102.502 89.0297C101.129 87.6568 98.9027 87.6568 97.5297 89.0297C96.1568 90.4025 96.1568 92.6286 97.5297 94.0015L102.214 98.6862L97.5297 103.371C96.1568 104.744 96.1568 106.97 97.5297 108.343C98.2162 109.029 99.116 109.373 100.016 109.373C100.915 109.373 101.815 109.029 102.501 108.343L107.186 103.658L111.871 108.343C112.557 109.029 113.457 109.373 114.356 109.373C115.256 109.373 116.156 109.029 116.842 108.343C118.215 106.97 118.215 104.744 116.842 103.371L112.158 98.6862Z" fill="#50B2BD"/>
</g>
<defs>
<clipPath id="clip0_4875_22851">
<rect width="215" height="165" fill="white" transform="translate(0.5)"/>
</clipPath>
</defs>
</svg>
