<svg width="222" height="172" viewBox="0 0 222 172" fill="none" xmlns="http://www.w3.org/2000/svg">
<g id="no-unit-assigned-empty-state" clip-path="url(#clip0_4879_23085)">
<path id="Vector" d="M193.806 99.0107C194.5 97.5863 195.112 96.0898 195.643 94.5215C201.726 76.567 192.528 55.063 173.156 49.8731C171.061 23.569 152.577 5.52633 131.704 2.44769C107.813 -1.07639 85.9235 14.1011 78.6411 38.2267C69.8622 35.1179 61.3083 35.4961 53.2486 40.2057C49.5923 41.897 46.2469 44.3933 43.2448 47.6761C38.8368 52.4947 35.9739 58.5801 34.807 64.9949C33.0786 65.2663 31.3803 65.5401 29.7795 66.1131C20.4462 69.4609 14.5557 76.3513 12.941 86.7286C11.9341 93.1898 13.9641 99.6371 15.0962 102.242C19.5669 112.534 29.935 118.371 40.4678 116.826C40.9921 116.749 41.753 116.986 42.2054 117.364C42.7622 133.815 50.75 148.364 62.7328 156.674C81.9586 170.01 106.694 165.901 122.299 147.615C128.985 154.454 136.943 157.776 146.292 156.57C155.586 155.37 162.804 150.241 168.07 141.903C170.501 142.557 172.81 143.501 175.195 143.761C184.533 144.782 192.117 141.068 197.68 132.672C199.81 129.458 201.824 125.292 201.824 117.991C201.824 110.462 198.836 103.607 193.806 99.0107Z" fill="#BFE4E8"/>
<path id="Vector_2" d="M183.715 90.9254C183.715 90.9254 210.726 90.9254 210.891 90.9254C217.129 90.9254 222.185 85.8678 222.185 79.6293C222.185 74.1866 218.336 69.6464 213.211 68.5745C213.269 68.0989 213.311 67.6164 213.311 67.1245C213.311 60.6633 208.075 55.4271 201.613 55.4271C197.799 55.4271 194.421 57.2622 192.287 60.0856C191.742 52.8936 185.318 47.3465 177.801 48.2652C172.305 48.938 167.76 53.186 166.748 58.6287C166.424 60.3733 166.458 62.0692 166.781 63.6584C165.308 62.0715 163.21 61.0716 160.874 61.0716C156.598 61.0716 153.109 64.4008 152.833 68.607C150.891 68.1778 148.78 68.2056 146.555 69.0408C142.305 70.637 139.277 74.639 139.099 79.1769C138.848 85.6219 143.996 90.9254 150.383 90.9254C150.868 90.9254 152.573 90.9254 152.968 90.9254H176.42" fill="#E0F8F9"/>
<path id="Vector_3" d="M155.167 23.0399H131.992C131.352 23.0399 130.832 22.5203 130.832 21.8799C130.832 21.2396 131.352 20.7199 131.992 20.7199H155.167C155.807 20.7199 156.327 21.2396 156.327 21.8799C156.327 22.5203 155.807 23.0399 155.167 23.0399ZM161.823 23.0399H158.482C157.842 23.0399 157.322 22.5203 157.322 21.8799C157.322 21.2396 157.842 20.7199 158.482 20.7199H161.823C162.463 20.7199 162.983 21.2396 162.983 21.8799C162.983 22.5203 162.463 23.0399 161.823 23.0399ZM171.191 23.0399H165.307C164.667 23.0399 164.147 22.5203 164.147 21.8799C164.147 21.2396 164.667 20.7199 165.307 20.7199H171.191C171.831 20.7199 172.351 21.2396 172.351 21.8799C172.351 22.5203 171.831 23.0399 171.191 23.0399ZM166.509 13.7599H144.291C143.65 13.7599 143.131 13.2403 143.131 12.5999C143.131 11.9596 143.65 11.4399 144.291 11.4399H166.509C167.149 11.4399 167.669 11.9596 167.669 12.5999C167.669 13.2403 167.152 13.7599 166.509 13.7599ZM140.291 13.7599H138.95C138.31 13.7599 137.79 13.2403 137.79 12.5999C137.79 11.9596 138.31 11.4399 138.95 11.4399H140.291C140.931 11.4399 141.451 11.9596 141.451 12.5999C141.451 13.2403 140.931 13.7599 140.291 13.7599ZM134.799 13.7599H131.435C130.795 13.7599 130.275 13.2403 130.275 12.5999C130.275 11.9596 130.795 11.4399 131.435 11.4399H134.799C135.44 11.4399 135.959 11.9596 135.959 12.5999C135.959 13.2403 135.44 13.7599 134.799 13.7599Z" fill="white"/>
<g id="Group">
<path id="Vector_4" d="M160.586 18.4001H148.97C148.329 18.4001 147.81 17.8804 147.81 17.2401C147.81 16.5998 148.329 16.0801 148.97 16.0801H160.586C161.226 16.0801 161.746 16.5998 161.746 17.2401C161.746 17.8804 161.228 18.4001 160.586 18.4001Z" fill="white"/>
</g>
<g id="Group_2">
<path id="Vector_5" d="M160.586 13.7599H157.681C157.041 13.7599 156.521 13.2403 156.521 12.5999C156.521 11.9596 157.041 11.4399 157.681 11.4399H160.586C161.226 11.4399 161.746 11.9596 161.746 12.5999C161.746 13.2403 161.229 13.7599 160.586 13.7599Z" fill="white"/>
</g>
<g id="Group_3">
<path id="Vector_6" d="M145.608 18.4001H141.546C140.905 18.4001 140.386 17.8804 140.386 17.2401C140.386 16.5998 140.905 16.0801 141.546 16.0801H145.608C146.248 16.0801 146.768 16.5998 146.768 17.2401C146.768 17.8804 146.251 18.4001 145.608 18.4001Z" fill="white"/>
</g>
<g id="Group_4">
<path id="Vector_7" d="M32.2997 83.3598H9.12289C8.48257 83.3598 7.96289 82.8401 7.96289 82.1998C7.96289 81.5594 8.48257 81.0398 9.12289 81.0398H32.2974C32.9377 81.0398 33.4574 81.5594 33.4574 82.1998C33.4574 82.8401 32.94 83.3598 32.2997 83.3598ZM38.9558 83.3598H35.6173C34.977 83.3598 34.4573 82.8401 34.4573 82.1998C34.4573 81.5594 34.977 81.0398 35.6173 81.0398H38.9558C39.5961 81.0398 40.1158 81.5594 40.1158 82.1998C40.1158 82.8401 39.5961 83.3598 38.9558 83.3598ZM48.3239 83.3598H42.4404C41.8001 83.3598 41.2804 82.8401 41.2804 82.1998C41.2804 81.5594 41.8001 81.0398 42.4404 81.0398H48.3239C48.9642 81.0398 49.4839 81.5594 49.4839 82.1998C49.4839 82.8401 48.9642 83.3598 48.3239 83.3598ZM48.3239 87.9998H26.1053C25.465 87.9998 24.9453 87.4801 24.9453 86.8398C24.9453 86.1994 25.465 85.6798 26.1053 85.6798H48.3239C48.9642 85.6798 49.4839 86.1994 49.4839 86.8398C49.4839 87.4801 48.9642 87.9998 48.3239 87.9998ZM22.1056 87.9998H20.7646C20.1243 87.9998 19.6046 87.4801 19.6046 86.8398C19.6046 86.1994 20.1243 85.6798 20.7646 85.6798H22.1056C22.7459 85.6798 23.2656 86.1994 23.2656 86.8398C23.2656 87.4801 22.7459 87.9998 22.1056 87.9998ZM16.6118 87.9998H13.2479C12.6075 87.9998 12.0879 87.4801 12.0879 86.8398C12.0879 86.1994 12.6075 85.6798 13.2479 85.6798H16.6118C17.2522 85.6798 17.7718 86.1994 17.7718 86.8398C17.7718 87.4801 17.2545 87.9998 16.6118 87.9998ZM37.7215 78.7198H26.1053C25.465 78.7198 24.9453 78.2001 24.9453 77.5598C24.9453 76.9194 25.465 76.3998 26.1053 76.3998H37.7215C38.3618 76.3998 38.8815 76.9194 38.8815 77.5598C38.8815 78.2001 38.3618 78.7198 37.7215 78.7198ZM37.7215 74.0798H34.8169C34.1766 74.0798 33.6569 73.5601 33.6569 72.9198C33.6569 72.2794 34.1766 71.7598 34.8169 71.7598H37.7215C38.3618 71.7598 38.8815 72.2794 38.8815 72.9198C38.8815 73.5601 38.3618 74.0798 37.7215 74.0798ZM30.1699 92.6398H26.1076C25.4673 92.6398 24.9476 92.1201 24.9476 91.4798C24.9476 90.8394 25.4673 90.3198 26.1076 90.3198H30.1699C30.8103 90.3198 31.3299 90.8394 31.3299 91.4798C31.3299 92.1201 30.8103 92.6398 30.1699 92.6398Z" fill="white"/>
</g>
<g id="Group_5">
<g id="Group_6">
<g id="Group_7">
<g id="Group_8">
<g id="Group_9">
<g id="Group_10">
<g id="Group_11">
<path id="Vector_8" d="M175.5 62.2293V131.288C175.5 132.525 174.498 133.527 173.259 133.527H123.834C122.598 133.527 121.594 132.525 121.594 131.288V62.2293C121.594 60.9931 122.598 59.9886 123.834 59.9886H173.259C174.498 59.9886 175.5 60.9931 175.5 62.2293Z" fill="#E4E6E9"/>
<g id="Group_12">
<path id="Vector_9" d="M175.5 79.6395V62.2291C175.5 60.9919 174.497 59.989 173.26 59.989H123.835C122.598 59.989 121.595 60.9919 121.595 62.2291V79.6395H175.5Z" fill="#BEC2C7"/>
</g>
<path id="Vector_10" d="M175.5 62.2293V72.7709H121.594V62.2293C121.594 60.9931 122.598 59.9886 123.834 59.9886H173.259C174.498 59.9886 175.5 60.9931 175.5 62.2293Z" fill="#989EA5"/>
</g>
</g>
<g id="Group_13">
<g id="Group_14">
<path id="Vector_11" d="M109.406 62.2292V131.288C109.406 132.525 108.401 133.527 107.165 133.527H57.7406C56.502 133.527 55.5 132.525 55.5 131.288V62.2292C55.5 60.993 56.502 59.9886 57.7406 59.9886H107.165C108.401 59.9886 109.406 60.993 109.406 62.2292Z" fill="#E4E6E9"/>
<g id="Group_15">
<path id="Vector_12" d="M109.405 79.6397V62.2294C109.405 60.9922 108.402 59.9892 107.165 59.9892H57.7399C56.5027 59.9892 55.5 60.9922 55.5 62.2294V79.6397H109.405Z" fill="#BEC2C7"/>
</g>
<path id="Vector_13" d="M109.405 72.7717H55.5V62.2291C55.5 60.9919 56.503 59.9891 57.7399 59.9891H107.165C108.402 59.9891 109.405 60.9921 109.405 62.2291V72.7717Z" fill="#989EA5"/>
<path id="Vector_14" d="M109.404 62.2283V72.7709H101.808V62.2283C101.808 60.9923 100.806 59.9882 99.5674 59.9882H107.164C108.402 59.9882 109.404 60.9923 109.404 62.2283Z" fill="#20BFD5"/>
</g>
</g>
</g>
<g id="Group_16">
<g id="Group_17">
<path id="Vector_15" d="M143.495 123.052H86.332C84.9011 123.052 83.7412 121.892 83.7412 120.461V40.5907C83.7412 39.1599 84.9011 38 86.332 38H143.495C144.926 38 146.086 39.1599 146.086 40.5907V120.461C146.086 121.892 144.926 123.052 143.495 123.052Z" fill="white"/>
<path id="Vector_16" d="M146.086 59.5718V40.5907C146.086 39.1599 144.926 38 143.495 38H86.332C84.9011 38 83.7412 39.1599 83.7412 40.5907V59.5718H146.086Z" fill="#85CAD1"/>
<path id="Vector_17" d="M146.085 40.5907V52.7839H83.7402V40.5907C83.7402 39.159 84.9016 38 86.331 38H143.494C144.926 38 146.085 39.159 146.085 40.5907Z" fill="#0093A4"/>
</g>
</g>
</g>
</g>
</g>
<g id="Group_18">
<path id="Vector_18" d="M92.7649 47.1759C92.768 47.1761 92.7709 47.1768 92.7741 47.1773C92.8137 47.1814 92.8542 47.1824 92.8945 47.1841C92.916 47.1851 92.9373 47.1875 92.959 47.1877H92.9687C93.9644 47.1877 94.7742 46.383 94.7793 45.3863C94.7839 44.5071 94.1609 43.7717 93.3311 43.6029C93.3289 43.6024 93.3265 43.6022 93.3241 43.6017C93.2683 43.5906 93.2116 43.5817 93.1541 43.5756C93.1336 43.5735 93.1123 43.5737 93.0916 43.5723C93.0537 43.5696 93.016 43.5662 92.9776 43.566H92.9547C92.9515 43.566 92.9484 43.566 92.945 43.566C92.8827 43.566 92.8211 43.5691 92.7605 43.5754C91.8474 43.6669 91.1436 44.4386 91.1436 45.3771C91.1433 46.3091 91.8578 47.0762 92.7649 47.1759Z" fill="white"/>
<path id="Vector_19" d="M98.4433 47.1878C99.4434 47.1878 100.254 46.377 100.254 45.3769C100.254 44.3768 99.4434 43.566 98.4433 43.566H98.4209C97.4208 43.566 96.6211 44.3768 96.6211 45.3769C96.6211 46.377 97.4432 47.1878 98.4433 47.1878Z" fill="white"/>
<path id="Vector_20" d="M103.922 47.1878C104.922 47.1878 105.733 46.377 105.733 45.3769C105.733 44.3768 104.922 43.566 103.922 43.566H103.899C102.899 43.566 102.1 44.3768 102.1 45.3769C102.1 46.377 102.922 47.1878 103.922 47.1878Z" fill="white"/>
</g>
</g>
<g id="Group_19">
<path id="Vector_21" d="M79.8503 142.214C84.2026 142.214 87.9749 142.214 88.0306 142.214C92.9049 142.214 96.8582 138.347 96.8582 133.575C96.8582 129.412 93.8491 125.937 89.8448 125.118C89.8912 124.754 89.9214 124.385 89.9214 124.009C89.9214 119.068 85.8289 115.061 80.7783 115.061C77.7971 115.061 75.1569 116.465 73.4888 118.624C73.0619 113.124 68.0415 108.88 62.1672 109.583C57.8729 110.098 54.3187 113.346 53.5299 117.511C53.277 118.847 53.3025 120.142 53.5554 121.36C52.4047 120.146 50.7644 119.381 48.9386 119.381C45.5978 119.381 42.8695 121.926 42.6537 125.144C41.1364 124.814 39.4869 124.837 37.7469 125.475C34.4247 126.696 32.0583 129.758 31.9191 133.229C31.7219 138.159 35.7471 142.214 40.7397 142.214C41.1179 142.214 42.4519 142.214 42.7581 142.214H61.0884M64.8839 142.214H65.7145H64.8839Z" fill="#E0F8F9"/>
</g>
</g>
<defs>
<clipPath id="clip0_4879_23085">
<rect width="221" height="172" fill="white" transform="translate(0.5)"/>
</clipPath>
</defs>
</svg>
